<svg width="50" height="50" viewBox="0 0 50 50" fill="none" xmlns="http://www.w3.org/2000/svg">
<rect width="50" height="50" rx="15" fill="#F9F9F9"/>
<path d="M24.9555 18.659C24.9965 17.543 25.3105 16.563 25.8885 15.744C26.47 14.9205 27.4315 14.3355 28.747 14.004L28.7745 14.1255V14.3375C28.7745 14.818 28.658 15.3695 28.428 15.9755C28.1865 16.5625 27.8095 17.1155 27.309 17.614C26.841 18.0535 26.4075 18.344 26.0245 18.4755C25.8985 18.5135 25.725 18.5505 25.5155 18.584C25.3295 18.613 25.1428 18.638 24.9555 18.659Z" fill="black"/>
<path d="M25.175 20.3145C23.689 20.3145 22.657 18.9995 21.1905 18.9995C19.7245 18.9995 16.704 20.3475 16.704 24.9995C16.704 29.6525 19.3865 32.6495 19.6865 32.9995C19.9865 33.35 20.68 34.2495 21.755 34.2495C22.83 34.2495 24.0065 33.395 25.175 33.395C26.3435 33.395 27.8145 34.25 28.775 34.25C29.735 34.25 30.13 33.8585 30.783 33.183C31.436 32.5075 32.683 30.448 33.118 29.211C32.4015 28.784 30.501 27.626 30.501 25C30.501 23.2497 31.1407 21.7955 32.42 20.6375C31.5807 19.5458 30.6073 19 29.5 19C27.8385 19 26.6615 20.3145 25.175 20.3145Z" fill="black" stroke="black" stroke-width="2" stroke-linejoin="round"/>
</svg>
