<svg width="83" height="83" viewBox="0 0 83 83" fill="none" xmlns="http://www.w3.org/2000/svg">
<rect width="83" height="83" rx="41.5" fill="#2B2B2B"/>
<path d="M21.0051 48V38.822H23.0461V48H21.0051ZM22.5651 48V46.232H27.5961V48H22.5651ZM22.5651 44.165V42.462H27.1411V44.165H22.5651ZM22.5651 40.577V38.822H27.5311V40.577H22.5651ZM28.5091 46.57L33.1241 40.239H35.5941L30.9661 46.57H28.5091ZM28.5091 48V46.57L29.8611 46.245H35.4771V48H28.5091ZM28.7691 40.577V38.822H35.5941V40.239L34.2161 40.577H28.7691ZM40.9493 48.143C40.282 48.143 39.6537 48.0217 39.0643 47.779C38.4837 47.5363 37.9767 47.2027 37.5433 46.778C37.11 46.3447 36.7677 45.842 36.5163 45.27C36.2737 44.6893 36.1523 44.0653 36.1523 43.398C36.1523 42.7307 36.278 42.111 36.5293 41.539C36.7807 40.967 37.1273 40.4687 37.5693 40.044C38.02 39.6107 38.5443 39.277 39.1423 39.043C39.7403 38.8003 40.3817 38.679 41.0663 38.679C41.855 38.679 42.57 38.822 43.2113 39.108C43.8613 39.394 44.3987 39.7883 44.8233 40.291L43.4323 41.682C43.1377 41.3007 42.791 41.0147 42.3923 40.824C41.9937 40.6333 41.543 40.538 41.0403 40.538C40.503 40.538 40.022 40.6593 39.5973 40.902C39.1727 41.136 38.839 41.4697 38.5963 41.903C38.3623 42.3277 38.2453 42.826 38.2453 43.398C38.2453 43.97 38.3623 44.4727 38.5963 44.906C38.8303 45.3393 39.151 45.6773 39.5583 45.92C39.9657 46.1627 40.4337 46.284 40.9623 46.284C41.4997 46.284 41.9547 46.1843 42.3273 45.985C42.7087 45.777 42.999 45.4823 43.1983 45.101C43.4063 44.711 43.5103 44.2387 43.5103 43.684L44.8623 44.594L40.7673 44.529V42.8H45.5903V43.099C45.5903 44.1997 45.391 45.127 44.9923 45.881C44.6023 46.6263 44.0563 47.1897 43.3543 47.571C42.661 47.9523 41.8593 48.143 40.9493 48.143ZM46.6454 48V41.682H48.6344V48H46.6454ZM47.6464 40.811C47.3344 40.811 47.0744 40.707 46.8664 40.499C46.667 40.2823 46.5674 40.0223 46.5674 39.719C46.5674 39.407 46.667 39.147 46.8664 38.939C47.0744 38.731 47.3344 38.627 47.6464 38.627C47.9584 38.627 48.214 38.731 48.4134 38.939C48.6127 39.147 48.7124 39.407 48.7124 39.719C48.7124 40.0223 48.6127 40.2823 48.4134 40.499C48.214 40.707 47.9584 40.811 47.6464 40.811ZM52.713 50.834C52.0197 50.834 51.4087 50.7127 50.88 50.47C50.36 50.236 49.9483 49.9023 49.645 49.469L50.867 48.247C51.0923 48.5157 51.3437 48.7193 51.621 48.858C51.907 48.9967 52.2493 49.066 52.648 49.066C53.142 49.066 53.5277 48.9447 53.805 48.702C54.091 48.4593 54.234 48.117 54.234 47.675V46.063L54.572 44.685L54.273 43.307V41.682H56.223V47.623C56.223 48.273 56.0713 48.8363 55.768 49.313C55.4647 49.7897 55.0487 50.1623 54.52 50.431C53.9913 50.6997 53.389 50.834 52.713 50.834ZM52.622 47.805C52.0413 47.805 51.5257 47.6663 51.075 47.389C50.6243 47.1117 50.269 46.7347 50.009 46.258C49.749 45.7813 49.619 45.2527 49.619 44.672C49.619 44.0827 49.749 43.554 50.009 43.086C50.269 42.6093 50.6243 42.2367 51.075 41.968C51.5257 41.6907 52.0413 41.552 52.622 41.552C53.0553 41.552 53.441 41.6343 53.779 41.799C54.1257 41.955 54.403 42.1803 54.611 42.475C54.8277 42.761 54.949 43.0947 54.975 43.476V45.881C54.949 46.2537 54.8277 46.5873 54.611 46.882C54.403 47.168 54.1257 47.3933 53.779 47.558C53.4323 47.7227 53.0467 47.805 52.622 47.805ZM52.999 46.037C53.2763 46.037 53.5147 45.9763 53.714 45.855C53.922 45.7337 54.078 45.5733 54.182 45.374C54.2947 45.166 54.351 44.932 54.351 44.672C54.351 44.412 54.2947 44.178 54.182 43.97C54.078 43.762 53.922 43.5973 53.714 43.476C53.5147 43.3547 53.2763 43.294 52.999 43.294C52.7303 43.294 52.492 43.3547 52.284 43.476C52.076 43.5973 51.9157 43.762 51.803 43.97C51.6903 44.178 51.634 44.412 51.634 44.672C51.634 44.9147 51.6903 45.1443 51.803 45.361C51.9157 45.569 52.0717 45.7337 52.271 45.855C52.479 45.9763 52.7217 46.037 52.999 46.037ZM59.9278 48.156C59.5551 48.156 59.1868 48.1083 58.8228 48.013C58.4675 47.9177 58.1338 47.7833 57.8218 47.61C57.5185 47.428 57.2585 47.22 57.0418 46.986L58.1728 45.842C58.3808 46.0673 58.6278 46.245 58.9138 46.375C59.1998 46.4963 59.5118 46.557 59.8498 46.557C60.0838 46.557 60.2615 46.5223 60.3828 46.453C60.5128 46.3837 60.5778 46.2883 60.5778 46.167C60.5778 46.011 60.4998 45.894 60.3438 45.816C60.1965 45.7293 60.0058 45.6557 59.7718 45.595C59.5378 45.5257 59.2908 45.452 59.0308 45.374C58.7708 45.296 58.5238 45.1877 58.2898 45.049C58.0558 44.9103 57.8651 44.7197 57.7178 44.477C57.5705 44.2257 57.4968 43.9093 57.4968 43.528C57.4968 43.1207 57.6008 42.7697 57.8088 42.475C58.0168 42.1717 58.3115 41.9333 58.6928 41.76C59.0741 41.5867 59.5205 41.5 60.0318 41.5C60.5691 41.5 61.0631 41.5953 61.5138 41.786C61.9731 41.968 62.3458 42.241 62.6318 42.605L61.5008 43.749C61.3015 43.515 61.0761 43.3503 60.8248 43.255C60.5821 43.1597 60.3438 43.112 60.1098 43.112C59.8845 43.112 59.7155 43.1467 59.6028 43.216C59.4901 43.2767 59.4338 43.3677 59.4338 43.489C59.4338 43.619 59.5075 43.723 59.6548 43.801C59.8021 43.879 59.9928 43.9483 60.2268 44.009C60.4608 44.0697 60.7078 44.1433 60.9678 44.23C61.2278 44.3167 61.4748 44.4337 61.7088 44.581C61.9428 44.7283 62.1335 44.9277 62.2808 45.179C62.4281 45.4217 62.5018 45.7423 62.5018 46.141C62.5018 46.7563 62.2678 47.246 61.7998 47.61C61.3405 47.974 60.7165 48.156 59.9278 48.156Z" fill="white"/>
</svg>
