<svg width="50" height="50" viewBox="0 0 50 50" fill="none" xmlns="http://www.w3.org/2000/svg">
<rect width="50" height="50" rx="15" fill="#F9F9F9"/>
<path opacity="0.987" fill-rule="evenodd" clip-rule="evenodd" d="M23.8135 13.5915C24.901 13.47 25.5445 13.47 26.713 13.5915C28.7814 13.8976 30.6988 14.8537 32.188 16.3215C31.1817 17.2727 30.1886 18.2378 29.209 19.2165C27.333 17.6265 25.239 17.2595 22.927 18.1155C21.231 18.8955 20.05 20.1595 19.384 21.9075C18.2957 21.0973 17.2215 20.2681 16.162 19.4205C16.0884 19.3817 16.0043 19.3676 15.922 19.38C17.605 16.135 20.235 14.205 23.812 13.59" fill="#F44336"/>
<path opacity="0.997" fill-rule="evenodd" clip-rule="evenodd" d="M15.919 19.38C16.004 19.367 16.0845 19.3805 16.1605 19.4205C17.22 20.2681 18.2942 21.0973 19.3825 21.9075C19.2112 22.5886 19.1033 23.2841 19.06 23.985C19.097 24.663 19.2045 25.3285 19.3825 25.9815L16 28.674C14.527 25.596 14.5 22.498 15.919 19.38Z" fill="#FFC107"/>
<path opacity="0.999" fill-rule="evenodd" clip-rule="evenodd" d="M32.0275 31.935C30.9743 31.0062 29.8717 30.1349 28.7245 29.325C29.8745 28.513 30.5725 27.399 30.8185 25.983H25.183V22.0695C28.433 22.0425 31.6815 22.07 34.9285 22.152C35.5445 25.497 34.833 28.513 32.794 31.2C32.5515 31.4577 32.2947 31.7031 32.0275 31.935Z" fill="#448AFF"/>
<path opacity="0.993" fill-rule="evenodd" clip-rule="evenodd" d="M19.3825 25.983C20.6125 29.04 22.8675 30.467 26.1475 30.264C27.0682 30.1574 27.951 29.8358 28.7245 29.325C29.8725 30.137 30.9735 31.007 32.0275 31.935C30.3575 33.4357 28.2282 34.3261 25.987 34.461C25.4778 34.5017 24.9662 34.5017 24.457 34.461C20.639 34.011 17.82 32.082 16 28.674L19.3825 25.983Z" fill="#43A047"/>
</svg>
