<svg width="24" height="24" viewBox="0 0 24 24" fill="none" xmlns="http://www.w3.org/2000/svg">
<path d="M12 4.04999L21.46 11.408C21.5408 11.4673 21.609 11.5422 21.6604 11.6282C21.7118 11.7143 21.7454 11.8098 21.7593 11.9091C21.7731 12.0084 21.767 12.1094 21.7411 12.2063C21.7152 12.3031 21.6702 12.3938 21.6087 12.473C21.5472 12.5521 21.4704 12.6182 21.383 12.6672C21.2955 12.7161 21.1991 12.7471 21.0995 12.7582C20.9999 12.7693 20.899 12.7603 20.8029 12.7317C20.7068 12.7032 20.6174 12.6557 20.54 12.592L19.75 11.978V20C19.75 20.1989 19.671 20.3897 19.5303 20.5303C19.3897 20.671 19.1989 20.75 19 20.75C18.8011 20.75 18.6103 20.671 18.4697 20.5303C18.329 20.3897 18.25 20.1989 18.25 20V10.811L12 5.95099L5.74999 10.811V20C5.74999 20.1989 5.67098 20.3897 5.53032 20.5303C5.38967 20.671 5.19891 20.75 4.99999 20.75C4.80108 20.75 4.61032 20.671 4.46966 20.5303C4.32901 20.3897 4.24999 20.1989 4.24999 20V11.978L3.45999 12.592C3.3025 12.7075 3.10618 12.757 2.91276 12.73C2.71934 12.703 2.54408 12.6016 2.42425 12.4474C2.30442 12.2931 2.24948 12.0983 2.27109 11.9042C2.2927 11.7101 2.38918 11.5321 2.53999 11.408L4.24999 10.078V7.49999C4.24999 6.80999 4.80999 6.24999 5.49999 6.24999H6.49999C6.8074 6.25005 7.10401 6.36339 7.33313 6.56834C7.56225 6.77329 7.70781 7.05548 7.74199 7.36099L12 4.04999ZM6.24999 8.42499V7.74999H5.74999V8.79999L6.24999 8.42499Z" fill="black"/>
<path d="M10.5 14.75C10.4337 14.75 10.3701 14.7763 10.3232 14.8232C10.2763 14.8701 10.25 14.9337 10.25 15V20C10.25 20.1989 10.171 20.3897 10.0303 20.5303C9.88968 20.671 9.69891 20.75 9.5 20.75C9.30109 20.75 9.11032 20.671 8.96967 20.5303C8.82902 20.3897 8.75 20.1989 8.75 20V15C8.75 14.034 9.534 13.25 10.5 13.25H13.5C14.466 13.25 15.25 14.034 15.25 15V20C15.25 20.1989 15.171 20.3897 15.0303 20.5303C14.8897 20.671 14.6989 20.75 14.5 20.75C14.3011 20.75 14.1103 20.671 13.9697 20.5303C13.829 20.3897 13.75 20.1989 13.75 20V15C13.75 14.9337 13.7237 14.8701 13.6768 14.8232C13.6299 14.7763 13.5663 14.75 13.5 14.75H10.5Z" fill="black"/>
</svg>
