<svg width="15" height="15" viewBox="0 0 15 15" fill="none" xmlns="http://www.w3.org/2000/svg">
<rect width="15" height="15" rx="7.5" fill="#B7B7B7" fill-opacity="0.2"/>
<path d="M8.4375 6.375C8.4375 6.62364 8.33873 6.8621 8.16291 7.03791C7.9871 7.21373 7.74864 7.3125 7.5 7.3125C7.25136 7.3125 7.0129 7.21373 6.83709 7.03791C6.66127 6.8621 6.5625 6.62364 6.5625 6.375C6.5625 6.12636 6.66127 5.8879 6.83709 5.71209C7.0129 5.53627 7.25136 5.4375 7.5 5.4375C7.74864 5.4375 7.9871 5.53627 8.16291 5.71209C8.33873 5.8879 8.4375 6.12636 8.4375 6.375Z" stroke="white" stroke-width="0.5"/>
<path d="M9.83326 9.375C10.3564 10.1205 10.6065 10.5176 10.4576 10.8375C10.4426 10.8695 10.4251 10.9004 10.4051 10.9301C10.1895 11.25 9.63264 11.25 8.51889 11.25H6.48114C5.36739 11.25 4.81089 11.25 4.59526 10.9301C4.57559 10.9005 4.55805 10.8696 4.54276 10.8375C4.39389 10.518 4.64401 10.1205 5.16714 9.375" stroke="white" stroke-width="0.5" stroke-linecap="round" stroke-linejoin="round"/>
<path d="M7.9718 9.56025C7.84513 9.68212 7.67619 9.75019 7.50042 9.75019C7.32465 9.75019 7.15571 9.68212 7.02905 9.56025C5.87067 8.43787 4.31855 7.18425 5.0753 5.364C5.48517 4.37962 6.46767 3.75 7.50042 3.75C8.53317 3.75 9.51605 4.38 9.92555 5.364C10.6815 7.18163 9.13317 8.44162 7.9718 9.56025Z" stroke="white" stroke-width="0.5"/>
</svg>
