<svg width="30" height="30" viewBox="0 0 30 30" fill="none" xmlns="http://www.w3.org/2000/svg">
<rect x="0.5" y="0.5" width="29" height="29" rx="14.5" stroke="#F9F9F9"/>
<path d="M19.75 19H19.375V13.6875C19.375 11.4828 17.7453 9.65938 15.625 9.35625V8.75C15.625 8.40469 15.3453 8.125 15 8.125C14.6547 8.125 14.375 8.40469 14.375 8.75V9.35625C12.2547 9.65938 10.625 11.4828 10.625 13.6875V19H10.25C9.97344 19 9.75 19.2234 9.75 19.5V20C9.75 20.0688 9.80625 20.125 9.875 20.125H13.25C13.25 21.0906 14.0344 21.875 15 21.875C15.9656 21.875 16.75 21.0906 16.75 20.125H20.125C20.1938 20.125 20.25 20.0688 20.25 20V19.5C20.25 19.2234 20.0266 19 19.75 19ZM15 20.875C14.5859 20.875 14.25 20.5391 14.25 20.125H15.75C15.75 20.5391 15.4141 20.875 15 20.875Z" fill="#2B2B2B"/>
<circle cx="18.1875" cy="10.1875" r="2.1875" fill="#FF3B30"/>
</svg>
