<svg width="15" height="15" viewBox="0 0 15 15" fill="none" xmlns="http://www.w3.org/2000/svg">
<rect width="15" height="15" rx="7.5" fill="#B7B7B7" fill-opacity="0.2"/>
<path fill-rule="evenodd" clip-rule="evenodd" d="M4.5 4.6875V5.4375H7.5V5.8125H4.125C3.82663 5.8125 3.54048 5.93103 3.3295 6.142C3.11853 6.35298 3 6.63913 3 6.9375V9.1875C3 9.48587 3.11853 9.77202 3.3295 9.983C3.54048 10.194 3.82663 10.3125 4.125 10.3125H8.625C8.90723 10.3125 9.17916 10.2065 9.38685 10.0154C9.59454 9.8243 9.72283 9.56213 9.74625 9.28088L12 9.5625V6.5625L9.74625 6.84413C9.72283 6.56287 9.59454 6.3007 9.38685 6.10961C9.17916 5.91851 8.90723 5.81247 8.625 5.8125H8.25V5.0625C8.25 4.96304 8.21049 4.86766 8.14016 4.79734C8.06984 4.72701 7.97446 4.6875 7.875 4.6875H4.5ZM9.75 7.59975V8.52525L11.25 8.71275V7.41225L9.75 7.59975ZM9 6.9375C9 6.83804 8.96049 6.74266 8.89016 6.67234C8.81984 6.60201 8.72446 6.5625 8.625 6.5625H4.125C4.02554 6.5625 3.93016 6.60201 3.85983 6.67234C3.78951 6.74266 3.75 6.83804 3.75 6.9375V9.1875C3.75 9.28696 3.78951 9.38234 3.85983 9.45267C3.93016 9.52299 4.02554 9.5625 4.125 9.5625H8.625C8.72446 9.5625 8.81984 9.52299 8.89016 9.45267C8.96049 9.38234 9 9.28696 9 9.1875V6.9375Z" fill="white"/>
</svg>
