<svg width="375" height="273" viewBox="0 0 375 273" fill="none" xmlns="http://www.w3.org/2000/svg">
<g clip-path="url(#clip0_1_989)">
<path d="M0 30C0 13.4315 13.4315 0 30 0H345C361.569 0 375 13.4315 375 30V273H0V30Z" fill="#F0EBDF"/>
<path d="M-62.79 112.489C-62.79 112.489 118.492 213.136 413.105 175.292" stroke="#FFA506" stroke-opacity="0.1" stroke-width="0.9978" stroke-miterlimit="10"/>
<path d="M-62.79 155.088C-62.79 155.088 118.492 255.735 413.105 217.891" stroke="#FFA506" stroke-opacity="0.1" stroke-width="0.9978" stroke-miterlimit="10"/>
<path d="M-62.79 197.688C-62.79 197.688 118.492 298.335 413.105 260.491" stroke="#FFA506" stroke-opacity="0.1" stroke-width="0.9978" stroke-miterlimit="10"/>
<path d="M-53.0531 85.7123C-53.0531 85.7123 128.229 186.359 422.842 148.515" stroke="#FFA506" stroke-opacity="0.1" stroke-width="0.9978" stroke-miterlimit="10"/>
<path d="M-43.316 55.2842C-43.316 55.2842 137.966 155.931 432.579 118.087" stroke="#FFA506" stroke-opacity="0.1" stroke-width="0.9978" stroke-miterlimit="10"/>
<path d="M-33.5791 24.8561C-33.5791 24.8561 147.703 125.503 442.316 87.6591" stroke="#FFA506" stroke-opacity="0.1" stroke-width="0.9978" stroke-miterlimit="10"/>
<path d="M-23.842 -5.57193C-23.842 -5.57193 157.44 95.0751 452.053 57.231" stroke="#FFA506" stroke-opacity="0.1" stroke-width="0.9978" stroke-miterlimit="10"/>
<path d="M-14.1051 -36C-14.1051 -36 167.177 64.647 461.79 26.8029" stroke="#FFA506" stroke-opacity="0.1" stroke-width="0.9978" stroke-miterlimit="10"/>
<path d="M26.0789 42.4211C26.4036 42.0965 26.9299 42.0965 27.2545 42.4211C27.5789 42.7455 27.5791 43.2714 27.255 43.5961L23.5379 47.3198C23.4101 47.4479 23.5008 47.6667 23.6818 47.6667H36.5C36.9603 47.6667 37.3334 48.0398 37.3334 48.5C37.3334 48.9602 36.9603 49.3333 36.5 49.3333H23.6818C23.5008 49.3333 23.4101 49.5521 23.5379 49.6802L27.255 53.4039C27.5791 53.7286 27.5789 54.2545 27.2545 54.5789C26.9299 54.9035 26.4036 54.9035 26.0789 54.5789L20.7844 49.2843C20.3512 48.8511 20.3512 48.1488 20.7844 47.7157L26.0789 42.4211Z" fill="black"/>
<path d="M49.5254 50.24C49.76 50.656 50.016 51.0187 50.2934 51.328C50.5814 51.6373 50.896 51.8773 51.2374 52.048C51.5787 52.2187 51.9467 52.304 52.3414 52.304C52.8 52.304 53.1734 52.1867 53.4614 51.952C53.7494 51.7173 53.8934 51.3973 53.8934 50.992C53.8934 50.64 53.8027 50.3573 53.6214 50.144C53.4507 49.9307 53.1894 49.744 52.8374 49.584C52.496 49.4133 52.0747 49.232 51.5734 49.04C51.3067 48.944 50.9974 48.816 50.6454 48.656C50.304 48.4853 49.9787 48.272 49.6694 48.016C49.36 47.7493 49.104 47.4293 48.9014 47.056C48.6987 46.672 48.5974 46.2133 48.5974 45.68C48.5974 45.04 48.7574 44.4907 49.0774 44.032C49.408 43.5627 49.8507 43.2053 50.4054 42.96C50.9707 42.704 51.6 42.576 52.2934 42.576C53.008 42.576 53.6214 42.6987 54.1334 42.944C54.656 43.1787 55.088 43.4827 55.4294 43.856C55.7814 44.2187 56.0534 44.5973 56.2454 44.992L54.4534 45.984C54.304 45.7173 54.1227 45.4773 53.9094 45.264C53.7067 45.04 53.472 44.864 53.2054 44.736C52.9387 44.5973 52.6347 44.528 52.2934 44.528C51.8454 44.528 51.5094 44.6347 51.2854 44.848C51.0614 45.0507 50.9494 45.2907 50.9494 45.568C50.9494 45.8453 51.04 46.0907 51.2214 46.304C51.4027 46.5067 51.68 46.704 52.0534 46.896C52.4267 47.0773 52.896 47.264 53.4614 47.456C53.824 47.584 54.1707 47.744 54.5014 47.936C54.8427 48.128 55.1467 48.3627 55.4134 48.64C55.6907 48.9067 55.904 49.2267 56.0534 49.6C56.2134 49.9627 56.2934 50.384 56.2934 50.864C56.2934 51.408 56.1867 51.8933 55.9734 52.32C55.76 52.7467 55.4667 53.1093 55.0934 53.408C54.72 53.696 54.2987 53.9147 53.8294 54.064C53.3707 54.224 52.8854 54.304 52.3734 54.304C51.6907 54.304 51.0507 54.176 50.4534 53.92C49.8667 53.6533 49.3547 53.296 48.9174 52.848C48.48 52.4 48.1387 51.9147 47.8934 51.392L49.5254 50.24ZM61.1187 54.16C60.3187 54.16 59.6201 54 59.0227 53.68C58.4254 53.36 57.9614 52.9173 57.6307 52.352C57.3107 51.776 57.1507 51.0987 57.1507 50.32C57.1507 49.5307 57.3107 48.8533 57.6307 48.288C57.9614 47.712 58.4254 47.2693 59.0227 46.96C59.6201 46.64 60.3241 46.48 61.1347 46.48C61.9454 46.48 62.6334 46.6293 63.1987 46.928C63.7747 47.216 64.2121 47.6427 64.5107 48.208C64.8094 48.7627 64.9587 49.4347 64.9587 50.224C64.9587 50.32 64.9534 50.4213 64.9427 50.528C64.9427 50.6347 64.9374 50.72 64.9268 50.784H58.3347V49.504H63.1187L62.5587 50.24C62.6014 50.176 62.6387 50.0907 62.6707 49.984C62.7134 49.8667 62.7347 49.7707 62.7347 49.696C62.7347 49.3333 62.6654 49.024 62.5267 48.768C62.3987 48.512 62.2121 48.3093 61.9667 48.16C61.7214 48.0107 61.4334 47.936 61.1027 47.936C60.6974 47.936 60.3561 48.0267 60.0787 48.208C59.8121 48.3787 59.6041 48.64 59.4547 48.992C59.3161 49.3333 59.2414 49.76 59.2307 50.272C59.2307 50.7627 59.3001 51.1787 59.4387 51.52C59.5881 51.8613 59.8067 52.1227 60.0947 52.304C60.3827 52.4853 60.7294 52.576 61.1347 52.576C61.5934 52.576 61.9827 52.4907 62.3027 52.32C62.6334 52.1387 62.9054 51.872 63.1187 51.52L64.9268 52.08C64.5427 52.7733 64.0307 53.296 63.3907 53.648C62.7614 53.9893 62.0041 54.16 61.1187 54.16ZM65.2577 46.64H69.8017V48.384H65.2577V46.64ZM66.5217 44.08H68.5217V54H66.5217V44.08ZM69.6409 46.64H74.1849V48.384H69.6409V46.64ZM70.9049 44.08H72.9049V54H70.9049V44.08ZM74.872 43.792C74.872 43.4507 74.9947 43.1733 75.24 42.96C75.4853 42.736 75.7787 42.624 76.12 42.624C76.4613 42.624 76.7493 42.736 76.984 42.96C77.2293 43.1733 77.352 43.4507 77.352 43.792C77.352 44.1227 77.2293 44.4 76.984 44.624C76.7493 44.848 76.4613 44.96 76.12 44.96C75.7787 44.96 75.4853 44.848 75.24 44.624C74.9947 44.4 74.872 44.1227 74.872 43.792ZM75.096 46.64H77.112V54H75.096V46.64ZM83.7437 49.52C83.7437 49.0293 83.6477 48.656 83.4557 48.4C83.2637 48.144 82.9544 48.016 82.5277 48.016C82.2397 48.016 81.9837 48.08 81.7597 48.208C81.5357 48.3253 81.3651 48.496 81.2477 48.72C81.1304 48.944 81.0717 49.2107 81.0717 49.52V54H78.9917V46.64H81.0717V47.76C81.2957 47.344 81.5891 47.0293 81.9517 46.816C82.3251 46.592 82.7731 46.48 83.2957 46.48C84.1704 46.48 84.8211 46.7307 85.2477 47.232C85.6744 47.7227 85.8877 48.4107 85.8877 49.296V54H83.7437V49.52ZM87.2573 54.512H89.2893C89.2999 54.832 89.3853 55.104 89.5453 55.328C89.7053 55.5627 89.9239 55.744 90.2013 55.872C90.4786 56 90.8039 56.064 91.1773 56.064C91.5186 56.064 91.8386 55.984 92.1373 55.824C92.4466 55.664 92.6919 55.4187 92.8733 55.088C93.0653 54.7573 93.1613 54.3413 93.1613 53.84V46.64H95.1613V53.84C95.1613 54.7467 94.9799 55.4933 94.6173 56.08C94.2653 56.6667 93.7906 57.0933 93.1933 57.36C92.5959 57.6373 91.9453 57.776 91.2413 57.776C90.3879 57.776 89.6733 57.6373 89.0973 57.36C88.5213 57.0933 88.0786 56.7093 87.7693 56.208C87.4706 55.7173 87.2999 55.152 87.2573 54.512ZM87.1133 50.256C87.1133 49.4347 87.2786 48.7467 87.6093 48.192C87.9399 47.6267 88.3773 47.2 88.9213 46.912C89.4653 46.624 90.0413 46.48 90.6493 46.48C91.2679 46.48 91.8119 46.6293 92.2813 46.928C92.7613 47.2267 93.1346 47.6587 93.4013 48.224C93.6786 48.7787 93.8173 49.456 93.8173 50.256C93.8173 51.0453 93.6786 51.7227 93.4013 52.288C93.1346 52.8533 92.7613 53.2853 92.2813 53.584C91.8119 53.872 91.2679 54.016 90.6493 54.016C90.0413 54.016 89.4653 53.872 88.9213 53.584C88.3773 53.296 87.9399 52.8747 87.6093 52.32C87.2786 51.7547 87.1133 51.0667 87.1133 50.256ZM89.2573 50.256C89.2573 50.6933 89.3479 51.0667 89.5293 51.376C89.7106 51.6747 89.9559 51.904 90.2653 52.064C90.5746 52.224 90.9053 52.304 91.2573 52.304C91.5666 52.304 91.8653 52.2293 92.1533 52.08C92.4519 51.92 92.6919 51.6907 92.8733 51.392C93.0653 51.0827 93.1613 50.704 93.1613 50.256C93.1613 49.9147 93.1079 49.616 93.0013 49.36C92.8946 49.104 92.7453 48.8907 92.5533 48.72C92.3719 48.5493 92.1693 48.4213 91.9453 48.336C91.7213 48.24 91.4919 48.192 91.2573 48.192C90.9053 48.192 90.5746 48.272 90.2653 48.432C89.9559 48.592 89.7106 48.8267 89.5293 49.136C89.3479 49.4347 89.2573 49.808 89.2573 50.256ZM97.2197 51.456C97.5291 51.744 97.8171 51.9787 98.0837 52.16C98.3504 52.3307 98.6011 52.4587 98.8357 52.544C99.0811 52.6293 99.3104 52.672 99.5237 52.672C99.8011 52.672 100.014 52.6133 100.164 52.496C100.313 52.368 100.388 52.1973 100.388 51.984C100.388 51.792 100.324 51.632 100.196 51.504C100.078 51.3653 99.9024 51.2427 99.6677 51.136C99.4331 51.0293 99.1344 50.9173 98.7717 50.8C98.4304 50.672 98.0997 50.5227 97.7797 50.352C97.4597 50.1707 97.1931 49.936 96.9797 49.648C96.7771 49.3493 96.6757 48.9707 96.6757 48.512C96.6757 48.0747 96.7931 47.7067 97.0277 47.408C97.2624 47.0987 97.5771 46.8693 97.9717 46.72C98.3771 46.56 98.8251 46.48 99.3157 46.48C99.7317 46.48 100.121 46.5333 100.484 46.64C100.846 46.7467 101.182 46.8907 101.492 47.072C101.801 47.2427 102.073 47.4453 102.308 47.68L101.396 48.96C101.129 48.672 100.809 48.4373 100.436 48.256C100.073 48.0747 99.7157 47.984 99.3637 47.984C99.1291 47.984 98.9424 48.032 98.8037 48.128C98.6757 48.2133 98.6117 48.3467 98.6117 48.528C98.6117 48.688 98.6757 48.832 98.8037 48.96C98.9424 49.0773 99.1344 49.184 99.3797 49.28C99.6357 49.376 99.9237 49.4933 100.244 49.632C100.638 49.7813 101.001 49.952 101.332 50.144C101.673 50.3253 101.945 50.5547 102.148 50.832C102.35 51.1093 102.452 51.472 102.452 51.92C102.452 52.656 102.212 53.232 101.732 53.648C101.252 54.0533 100.59 54.256 99.7477 54.256C99.2251 54.256 98.7451 54.1867 98.3077 54.048C97.8811 53.9093 97.4917 53.728 97.1397 53.504C96.7984 53.2693 96.4891 53.0187 96.2117 52.752L97.2197 51.456ZM110.584 48C110.36 47.744 110.125 47.4773 109.88 47.2C109.635 46.9227 109.421 46.624 109.24 46.304C109.069 45.984 108.984 45.632 108.984 45.248C108.984 44.768 109.117 44.3253 109.384 43.92C109.651 43.504 110.024 43.1733 110.504 42.928C110.984 42.6827 111.555 42.56 112.216 42.56C112.867 42.56 113.421 42.688 113.88 42.944C114.339 43.2 114.685 43.5307 114.92 43.936C115.155 44.3307 115.272 44.752 115.272 45.2C115.272 45.5413 115.213 45.8453 115.096 46.112C114.979 46.3787 114.808 46.6347 114.584 46.88C114.36 47.1253 114.088 47.3653 113.768 47.6C113.448 47.8347 113.075 48.0907 112.648 48.368C112.36 48.5493 112.051 48.72 111.72 48.88C111.4 49.0293 111.096 49.1893 110.808 49.36C110.52 49.5307 110.285 49.7333 110.104 49.968C109.923 50.2027 109.832 50.496 109.832 50.848C109.832 51.1467 109.907 51.4187 110.056 51.664C110.216 51.8987 110.435 52.0853 110.712 52.224C111 52.352 111.336 52.416 111.72 52.416C112.189 52.416 112.648 52.32 113.096 52.128C113.555 51.9253 113.992 51.6533 114.408 51.312C114.835 50.96 115.24 50.56 115.624 50.112C116.008 49.6533 116.371 49.1733 116.712 48.672L118.136 49.712C117.763 50.2347 117.347 50.7627 116.888 51.296C116.44 51.8293 115.939 52.3147 115.384 52.752C114.84 53.1787 114.243 53.5253 113.592 53.792C112.941 54.0587 112.232 54.192 111.464 54.192C110.781 54.192 110.152 54.064 109.576 53.808C109 53.552 108.536 53.1893 108.184 52.72C107.832 52.24 107.656 51.6747 107.656 51.024C107.656 50.5227 107.752 50.0907 107.944 49.728C108.136 49.3653 108.381 49.056 108.68 48.8C108.979 48.5333 109.304 48.3093 109.656 48.128C110.008 47.9467 110.344 47.792 110.664 47.664C110.995 47.5253 111.272 47.4027 111.496 47.296C112.093 46.9867 112.552 46.6667 112.872 46.336C113.192 45.9947 113.352 45.6693 113.352 45.36C113.352 45.1573 113.304 44.9707 113.208 44.8C113.123 44.6293 112.995 44.496 112.824 44.4C112.653 44.2933 112.445 44.24 112.2 44.24C111.816 44.24 111.523 44.352 111.32 44.576C111.117 44.7893 111.016 45.0453 111.016 45.344C111.016 45.6747 111.155 46.0053 111.432 46.336C111.72 46.656 112.061 47.0347 112.456 47.472L118.376 54H115.992L110.584 48ZM124.029 42.8H126.317V54H124.029V42.8ZM125.421 44.736V42.8H127.645C128.531 42.8 129.283 42.944 129.901 43.232C130.531 43.52 131.011 43.9307 131.341 44.464C131.672 44.9973 131.837 45.632 131.837 46.368C131.837 47.0933 131.672 47.728 131.341 48.272C131.011 48.8053 130.531 49.216 129.901 49.504C129.283 49.792 128.531 49.936 127.645 49.936H125.421V48H127.645C128.253 48 128.733 47.8613 129.085 47.584C129.437 47.3067 129.613 46.9013 129.613 46.368C129.613 45.824 129.437 45.4187 129.085 45.152C128.733 44.8747 128.253 44.736 127.645 44.736H125.421ZM134.815 46.64V54H132.783V46.64H134.815ZM136.975 48.8C136.836 48.672 136.692 48.576 136.543 48.512C136.404 48.4373 136.228 48.4 136.015 48.4C135.759 48.4 135.54 48.4693 135.359 48.608C135.178 48.7467 135.039 48.944 134.943 49.2C134.858 49.4453 134.815 49.744 134.815 50.096L134.239 49.52C134.239 48.9333 134.351 48.416 134.575 47.968C134.799 47.5093 135.092 47.1467 135.455 46.88C135.818 46.6027 136.191 46.464 136.575 46.464C136.842 46.464 137.092 46.512 137.327 46.608C137.572 46.704 137.77 46.848 137.919 47.04L136.975 48.8ZM137.967 50.32C137.967 49.552 138.143 48.88 138.495 48.304C138.858 47.728 139.343 47.28 139.951 46.96C140.57 46.64 141.268 46.48 142.047 46.48C142.826 46.48 143.519 46.64 144.127 46.96C144.746 47.28 145.231 47.728 145.583 48.304C145.946 48.88 146.127 49.552 146.127 50.32C146.127 51.0773 145.946 51.7493 145.583 52.336C145.231 52.912 144.746 53.36 144.127 53.68C143.519 54 142.826 54.16 142.047 54.16C141.268 54.16 140.57 54 139.951 53.68C139.343 53.36 138.858 52.912 138.495 52.336C138.143 51.7493 137.967 51.0773 137.967 50.32ZM140.079 50.32C140.079 50.736 140.164 51.104 140.335 51.424C140.516 51.7333 140.756 51.9787 141.055 52.16C141.354 52.3307 141.684 52.416 142.047 52.416C142.41 52.416 142.74 52.3307 143.039 52.16C143.338 51.9787 143.572 51.7333 143.743 51.424C143.924 51.104 144.015 50.736 144.015 50.32C144.015 49.904 143.924 49.536 143.743 49.216C143.572 48.896 143.338 48.6507 143.039 48.48C142.74 48.3093 142.41 48.224 142.047 48.224C141.684 48.224 141.354 48.3093 141.055 48.48C140.756 48.6507 140.516 48.896 140.335 49.216C140.164 49.536 140.079 49.904 140.079 50.32ZM146.738 46.64H151.346V48.384H146.738V46.64ZM151.122 43.6C151.015 43.44 150.892 43.3333 150.754 43.28C150.626 43.216 150.498 43.184 150.37 43.184C150.21 43.184 150.071 43.2267 149.954 43.312C149.847 43.3867 149.762 43.5147 149.698 43.696C149.634 43.8773 149.602 44.1067 149.602 44.384V54H147.602V43.92C147.602 43.3547 147.698 42.88 147.89 42.496C148.082 42.112 148.37 41.8187 148.754 41.616C149.138 41.4027 149.607 41.296 150.162 41.296C150.492 41.296 150.775 41.3387 151.01 41.424C151.244 41.4987 151.442 41.5947 151.602 41.712C151.772 41.8293 151.906 41.9413 152.002 42.048L151.122 43.6ZM152.164 43.792C152.164 43.4507 152.287 43.1733 152.532 42.96C152.778 42.736 153.071 42.624 153.412 42.624C153.754 42.624 154.042 42.736 154.276 42.96C154.522 43.1733 154.644 43.4507 154.644 43.792C154.644 44.1227 154.522 44.4 154.276 44.624C154.042 44.848 153.754 44.96 153.412 44.96C153.071 44.96 152.778 44.848 152.532 44.624C152.287 44.4 152.164 44.1227 152.164 43.792ZM152.388 46.64H154.404V54H152.388V46.64ZM156.284 41.52H158.364V54H156.284V41.52ZM163.561 54.16C162.761 54.16 162.063 54 161.465 53.68C160.868 53.36 160.404 52.9173 160.073 52.352C159.753 51.776 159.593 51.0987 159.593 50.32C159.593 49.5307 159.753 48.8533 160.073 48.288C160.404 47.712 160.868 47.2693 161.465 46.96C162.063 46.64 162.767 46.48 163.577 46.48C164.388 46.48 165.076 46.6293 165.641 46.928C166.217 47.216 166.655 47.6427 166.953 48.208C167.252 48.7627 167.401 49.4347 167.401 50.224C167.401 50.32 167.396 50.4213 167.385 50.528C167.385 50.6347 167.38 50.72 167.369 50.784H160.777V49.504H165.561L165.001 50.24C165.044 50.176 165.081 50.0907 165.113 49.984C165.156 49.8667 165.177 49.7707 165.177 49.696C165.177 49.3333 165.108 49.024 164.969 48.768C164.841 48.512 164.655 48.3093 164.409 48.16C164.164 48.0107 163.876 47.936 163.545 47.936C163.14 47.936 162.799 48.0267 162.521 48.208C162.255 48.3787 162.047 48.64 161.897 48.992C161.759 49.3333 161.684 49.76 161.673 50.272C161.673 50.7627 161.743 51.1787 161.881 51.52C162.031 51.8613 162.249 52.1227 162.537 52.304C162.825 52.4853 163.172 52.576 163.577 52.576C164.036 52.576 164.425 52.4907 164.745 52.32C165.076 52.1387 165.348 51.872 165.561 51.52L167.369 52.08C166.985 52.7733 166.473 53.296 165.833 53.648C165.204 53.9893 164.447 54.16 163.561 54.16Z" fill="black"/>
</g>
<defs>
<clipPath id="clip0_1_989">
<path d="M0 30C0 13.4315 13.4315 0 30 0H345C361.569 0 375 13.4315 375 30V273H0V30Z" fill="white"/>
</clipPath>
</defs>
</svg>
