<svg width="30" height="30" viewBox="0 0 30 30" fill="none" xmlns="http://www.w3.org/2000/svg">
<rect x="0.5" y="0.5" width="29" height="29" rx="14.5" stroke="#F9F9F9"/>
<path d="M19.875 19.875L17.5225 17.5225M17.5225 17.5225C17.9249 17.1201 18.2441 16.6424 18.4619 16.1167C18.6797 15.5909 18.7918 15.0274 18.7918 14.4583C18.7918 13.8893 18.6797 13.3258 18.4619 12.8C18.2441 12.2742 17.9249 11.7965 17.5225 11.3941C17.1201 10.9917 16.6424 10.6725 16.1167 10.4548C15.5909 10.237 15.0274 10.1249 14.4583 10.1249C13.8892 10.1249 13.3257 10.237 12.8 10.4548C12.2742 10.6725 11.7965 10.9917 11.3941 11.3941C10.5814 12.2068 10.1249 13.309 10.1249 14.4583C10.1249 15.6076 10.5814 16.7099 11.3941 17.5225C12.2068 18.3352 13.309 18.7918 14.4583 18.7918C15.6076 18.7918 16.7099 18.3352 17.5225 17.5225Z" stroke="black" stroke-linecap="round" stroke-linejoin="round"/>
</svg>
