<svg width="14" height="14" viewBox="0 0 14 14" fill="none" xmlns="http://www.w3.org/2000/svg">
<path d="M6.9997 10.0771L4.57887 11.5354C4.47193 11.6035 4.36012 11.6327 4.24345 11.6229C4.12679 11.6132 4.0247 11.5743 3.9372 11.5063C3.8497 11.4382 3.78165 11.3533 3.73304 11.2514C3.68443 11.1495 3.6747 11.0351 3.70387 10.9084L4.34554 8.15212L2.20179 6.30003C2.10456 6.21253 2.0439 6.11278 2.01979 6.00078C1.99568 5.88878 2.00287 5.77951 2.04137 5.67295C2.07987 5.56639 2.1382 5.47889 2.21637 5.41045C2.29454 5.342 2.40148 5.29826 2.5372 5.2792L5.36637 5.03128L6.46012 2.43545C6.50873 2.31878 6.58418 2.23128 6.68645 2.17295C6.78873 2.11462 6.89315 2.08545 6.9997 2.08545C7.10626 2.08545 7.21068 2.11462 7.31295 2.17295C7.41523 2.23128 7.49068 2.31878 7.53929 2.43545L8.63304 5.03128L11.4622 5.2792C11.5983 5.29864 11.7053 5.34239 11.783 5.41045C11.8608 5.4785 11.9191 5.56601 11.958 5.67295C11.9969 5.77989 12.0043 5.88937 11.9802 6.00137C11.9561 6.11337 11.8952 6.21292 11.7976 6.30003L9.65387 8.15212L10.2955 10.9084C10.3247 11.0348 10.315 11.1491 10.2664 11.2514C10.2178 11.3536 10.1497 11.4386 10.0622 11.5063C9.9747 11.5739 9.87262 11.6128 9.75595 11.6229C9.63929 11.6331 9.52748 11.6039 9.42054 11.5354L6.9997 10.0771Z" fill="#FF9500"/>
</svg>
