<svg width="23" height="16" viewBox="0 0 23 16" fill="none" xmlns="http://www.w3.org/2000/svg">
<path d="M14.9375 3H7.0625C5.71984 3 4.43217 3.52678 3.48277 4.46447C2.53337 5.40215 2 6.67392 2 8C2 9.32608 2.53337 10.5979 3.48277 11.5355C4.43217 12.4732 5.71984 13 7.0625 13H14.9375C16.2802 13 17.5678 12.4732 18.5172 11.5355C19.4666 10.5979 20 9.32608 20 8C20 6.67392 19.4666 5.40215 18.5172 4.46447C17.5678 3.52678 16.2802 3 14.9375 3ZM14.9375 10.9861C14.3395 10.9861 13.755 10.811 13.2578 10.4829C12.7606 10.1547 12.373 9.68838 12.1442 9.14274C11.9154 8.59709 11.8555 7.99669 11.9722 7.41744C12.0888 6.83819 12.3768 6.30612 12.7996 5.8885C13.2224 5.47089 13.7612 5.18649 14.3477 5.07127C14.9341 4.95605 15.5421 5.01518 16.0945 5.24119C16.647 5.4672 17.1192 5.84994 17.4514 6.34101C17.7836 6.83207 17.9609 7.4094 17.9609 8C17.9615 8.3923 17.8837 8.78084 17.7319 9.14338C17.5802 9.50592 17.3575 9.83533 17.0766 10.1127C16.7958 10.3901 16.4622 10.6101 16.0952 10.7599C15.7281 10.9098 15.3347 10.9867 14.9375 10.9861Z" fill="black"/>
</svg>
